<svg t="1554371943992" class="icon" viewBox="0 0 1024 1024" version="1.1" xmlns="http://www.w3.org/2000/svg" p-id="8879" height="32" width="32"><path d="M563.2 601.6l-70.4 51.2L460.8 576 428.8 569.6l44.8 108.8L384 652.8l-6.4 32L467.2 704l-12.8 44.8-89.6-25.6-6.4 32L448 780.8l-25.6 102.4L448 896l25.6-102.4 89.6 25.6L576 780.8l-89.6-25.6 12.8-44.8 89.6 25.6 6.4-32-89.6-25.6 89.6-70.4L563.2 601.6zM512 0C230.4 0 0 224 0 499.2c0 121.6 44.8 236.8 121.6 326.4l140.8-512 12.8-51.2c6.4 19.2 19.2 44.8 32 64 51.2 76.8 134.4 140.8 230.4 166.4 102.4 25.6 198.4 12.8 288-32 19.2-12.8 44.8-25.6 64-38.4l-12.8 51.2-128 473.6c166.4-83.2 275.2-249.6 275.2-448C1024 224 793.6 0 512 0zM902.4 377.6c-19.2 12.8-38.4 25.6-64 38.4C755.2 460.8 652.8 473.6 550.4 448 454.4 422.4 371.2 364.8 320 281.6c-12.8-19.2-25.6-38.4-32-64l6.4-32C307.2 147.2 345.6 128 384 134.4l473.6 121.6c38.4 12.8 64 51.2 51.2 83.2L902.4 377.6z" p-id="8880" fill="#d81e06"></path></svg>