<svg t="1554342579219" class="icon" viewBox="0 0 1024 1024" version="1.1" xmlns="http://www.w3.org/2000/svg" p-id="2909" height="32" width="32"><path d="M512 55.296C256 55.296 51.2 260.096 51.2 512s204.8 456.704 460.8 456.704 456.704-204.8 456.704-456.704S763.904 55.296 512 55.296zM512 929.792C281.6 929.792 94.208 742.4 94.208 512S281.6 94.208 512 94.208 929.792 281.6 929.792 512C925.696 742.4 742.4 929.792 512 929.792zM738.304 490.496 281.6 490.496c-13.312 0-21.504 8.192-21.504 21.504 0 13.312 8.192 21.504 21.504 21.504l456.704 0c12.288 0 21.504-8.192 21.504-21.504C759.808 498.688 750.592 490.496 738.304 490.496z" p-id="2910" fill="#ff6600"></path></svg>